<svg width="396.000000pt" height="484.000000pt" viewBox="0 0 396.000000 484.000000" xmlns="http://www.w3.org/2000/svg">
  <g transform="translate(0.000000,484.000000) scale(0.100000,-0.100000)" fill="#f1f1f1" stroke="none">
    <path d="M250 2360 l0 -2120 1725 0 1725 0 0 1668 0 1668 -459 452 -459 452
-1266 0 -1266 0 0 -2120z m2930 875 l0 -25 -1215 0 -1215 0 0 25 0 25 1215 0
1215 0 0 -25z m0 -400 l0 -25 -1215 0 -1215 0 0 25 0 25 1215 0 1215 0 0 -25z
m0 -350 l0 -25 -1215 0 -1215 0 0 25 0 25 1215 0 1215 0 0 -25z m0 -750 l0
-25 -1215 0 -1215 0 0 25 0 25 1215 0 1215 0 0 -25z m0 -320 l0 -25 -1215 0
-1215 0 0 25 0 25 1215 0 1215 0 0 -25z m10 -350 l0 -25 -1215 0 -1215 0 0 25
0 25 1215 0 1215 0 0 -25z" />
  </g>
  <g transform="translate(0.000000,484.000000) scale(0.100000,-0.100000)" fill="#ffffff" stroke="none">
    <path d="M0 2420 l0 -2420 1980 0 1980 0 0 2420 0 2420 -1980 0 -1980 0 0
-2420z m3276 1644 l474 -467 0 -1703 0 -1704 -1775 0 -1775 0 0 2170 0 2170
1301 0 1301 0 474 -466z" />
  </g>
  <g transform="translate(0.000000,484.000000) scale(0.100000,-0.100000)" fill="#042433" stroke="none">
    <path d="M190 2360 l0 -2180 1785 0 1785 0 0 1714 0 1713 -474 467 -474 466
-1311 0 -1311 0 0 -2180z m3041 1658 l459 -451 0 -1659 0 -1658 -1715 0 -1715
0 0 2110 0 2110 1256 0 1256 0 459 -452z" />
  </g>
  <g transform="translate(0.000000,484.000000) scale(0.100000,-0.100000)" fill="#4b4b4b" stroke="none">
    <path d="M740 3235 l0 -35 1225 0 1225 0 0 35 0 35 -1225 0 -1225 0 0 -35z" />
    <path d="M740 2835 l0 -35 1225 0 1225 0 0 35 0 35 -1225 0 -1225 0 0 -35z" />
    <path d="M740 2485 l0 -35 1225 0 1225 0 0 35 0 35 -1225 0 -1225 0 0 -35z" />
    <path d="M740 1735 l0 -35 1225 0 1225 0 0 35 0 35 -1225 0 -1225 0 0 -35z" />
    <path d="M740 1415 l0 -35 1225 0 1225 0 0 35 0 35 -1225 0 -1225 0 0 -35z" />
    <path d="M750 1065 l0 -35 1225 0 1225 0 0 35 0 35 -1225 0 -1225 0 0 -35z" />
  </g>
  <g transform="translate(0.000000,484.000000) scale(0.100000,-0.100000)" fill="#7c868b" stroke="none">
    <path d="M2835 4511 c46 -50 925 -914 925 -909 0 3 -215 216 -477 474 -263
257 -464 453 -448 435z" />
    <path d="M3230 4020 c250 -247 457 -446 460 -443 6 6 -892 892 -905 892 -5 0
195 -202 445 -449z" />
    <path d="M743 3235 l0 -40 4 23 c2 12 2 30 0 40 -3 9 -5 -1 -4 -23z" />
    <path d="M743 2835 l0 -40 4 23 c2 12 2 30 0 40 -3 9 -5 -1 -4 -23z" />
    <path d="M743 2485 l0 -40 4 23 c2 12 2 30 0 40 -3 9 -5 -1 -4 -23z" />
    <path d="M743 1735 l0 -40 4 23 c2 12 2 30 0 40 -3 9 -5 -1 -4 -23z" />
    <path d="M743 1415 l0 -40 4 23 c2 12 2 30 0 40 -3 9 -5 -1 -4 -23z" />
    <path d="M753 1065 l0 -40 4 23 c2 12 2 30 0 40 -3 9 -5 -1 -4 -23z" />
  </g>
  <g transform="translate(0.000000,484.000000) scale(0.100000,-0.100000)" fill="#092937" stroke="none">
    <path d="M2860 4396 c104 -107 830 -819 830 -814 0 3 -204 204 -452 448 -249
244 -419 409 -378 366z" />
  </g>
  <g transform="translate(0.000000,484.000000) scale(0.100000,-0.100000)" fill="#000000" stroke="none" />
  <g transform="translate(0.000000,484.000000) scale(0.100000,-0.100000)" fill="#000000" stroke="none" />
  <g transform="translate(0.000000,484.000000) scale(0.100000,-0.100000)" fill="#000000" stroke="none" />
  <g transform="translate(0.000000,484.000000) scale(0.100000,-0.100000)" fill="#000000" stroke="none" />
  <g transform="translate(0.000000,484.000000) scale(0.100000,-0.100000)" fill="#000000" stroke="none" />
  <g transform="translate(0.000000,484.000000) scale(0.100000,-0.100000)" fill="#000000" stroke="none" />
  <g transform="translate(0.000000,484.000000) scale(0.100000,-0.100000)" fill="#000000" stroke="none" />
  <g transform="translate(0.000000,484.000000) scale(0.100000,-0.100000)" fill="#ffffff" stroke="none" />
  <g transform="translate(0.000000,484.000000) scale(0.100000,-0.100000)" fill="#0000ff" stroke="none" />
  <g transform="translate(0.000000,484.000000) scale(0.100000,-0.100000)" fill="#ff00ff" stroke="none" />
  <g transform="translate(0.000000,484.000000) scale(0.100000,-0.100000)" fill="#000000" stroke="none" />
  <g transform="translate(0.000000,484.000000) scale(0.100000,-0.100000)" fill="#ffff00" stroke="none" />
  <g transform="translate(0.000000,484.000000) scale(0.100000,-0.100000)" fill="#00ff00" stroke="none" />
  <g transform="translate(0.000000,484.000000) scale(0.100000,-0.100000)" fill="#ff0000" stroke="none" />
  <g transform="translate(0.000000,484.000000) scale(0.100000,-0.100000)" fill="#c0c0c0" stroke="none" />
  <g transform="translate(0.000000,484.000000) scale(0.100000,-0.100000)" fill="#808080" stroke="none" />
  <g transform="translate(0.000000,484.000000) scale(0.100000,-0.100000)" fill="#008080" stroke="none" />
  <g transform="translate(0.000000,484.000000) scale(0.100000,-0.100000)" fill="#00ffff" stroke="none" />
  <g transform="translate(0.000000,484.000000) scale(0.100000,-0.100000)" fill="#000000" stroke="none" />
</svg>